ffmpeg version git-2026-04-19-de18feb Copyright (c) 2000-2026 the FFmpeg developers
  built with gcc 9 (Ubuntu 9.4.0-1ubuntu1~20.04.2)
  configuration: --enable-shared --enable-gpl --enable-libx264
  libavutil      60. 30.100 / 60. 30.100
  libavcodec     62. 30.100 / 62. 30.100
  libavformat    62. 13.102 / 62. 13.102
  libavdevice    62.  4.100 / 62.  4.100
  libavfilter    11. 15.101 / 11. 15.101
  libswscale      9.  7.100 /  9.  7.100
  libswresample   6.  4.100 /  6.  4.100
[in#0/x11grab @ 0x561ae2471c40] Stream #0: not enough frames to estimate rate; consider increasing probesize
Input #0, x11grab, from ':0.0+0,0':
  Duration: N/A, start: 1777443713.227103, bitrate: 3678192 kb/s
  Stream #0:0: Video: rawvideo (BGR[0] / 0x524742), bgr0, 2870x1602, 3678192 kb/s, 25 fps, 1000k tbr, 1000k tbn, start 1777443713.227103
Stream mapping:
  Stream #0:0 -> #0:0 (rawvideo (native) -> h264 (libx264))
[libx264 @ 0x561ae247ff00] using cpu capabilities: MMX2 SSE2Fast SSSE3 SSE4.2 AVX FMA3 BMI2 AVX2
[libx264 @ 0x561ae247ff00] profile High, level 5.0
[libx264 @ 0x561ae247ff00] 264 - core 155 r2917 0a84d98 - H.264/MPEG-4 AVC codec - Copyleft 2003-2018 - http://www.videolan.org/x264.html - options: cabac=1 ref=1 deblock=1:0:0 analyse=0x3:0x113 me=hex subme=2 psy=1 psy_rd=1.00:0.00 mixed_ref=0 me_range=16 chroma_me=1 trellis=0 8x8dct=1 cqm=0 deadzone=21,11 fast_pskip=1 chroma_qp_offset=0 threads=6 lookahead_threads=2 sliced_threads=0 nr=0 decimate=1 interlaced=0 bluray_compat=0 constrained_intra=0 bframes=3 b_pyramid=2 b_adapt=1 b_bias=0 direct=1 weightb=1 open_gop=0 weightp=1 keyint=250 keyint_min=25 scenecut=40 intra_refresh=0 rc_lookahead=10 rc=crf mbtree=1 crf=23.0 qcomp=0.60 qpmin=0 qpmax=69 qpstep=4 ip_ratio=1.40 aq=1:1.00
Output #0, matroska, to '/home/lmy/catkin_ws/recordings_tmp/exp_15b_segment/screen.mkv':
  Metadata:
    encoder         : Lavf62.13.102
  Stream #0:0: Video: h264 (H264 / 0x34363248), yuv420p(tv, progressive), 2870x1602, q=2-31, 25 fps, 1k tbn
    Metadata:
      encoder         : Lavc62.30.100 libx264
    Side data:
      CPB properties: bitrate max/min/avg: 0/0/0 buffer size: 0 vbv_delay: N/A
frame=    0 fps=0.0 q=0.0 size=       0KiB time=N/A bitrate=N/A speed=N/A elapsed=0:00:00.50    frame=    6 fps=6.0 q=28.0 size=       1KiB time=00:00:00.16 bitrate=  29.7kbits/s speed=0.16x elapsed=0:00:01.00    frame=   18 fps= 12 q=28.0 size=       1KiB time=00:00:00.64 bitrate=   7.4kbits/s speed=0.426x elapsed=0:00:01.50    frame=   30 fps= 15 q=28.0 size=       1KiB time=00:00:01.16 bitrate=   4.1kbits/s speed=0.58x elapsed=0:00:02.00    frame=   43 fps= 17 q=28.0 size=       1KiB time=00:00:01.64 bitrate=   2.9kbits/s speed=0.656x elapsed=0:00:02.50    frame=   56 fps= 19 q=28.0 size=       1KiB time=00:00:02.16 bitrate=   2.2kbits/s speed=0.72x elapsed=0:00:03.00    frame=   68 fps= 19 q=28.0 size=       1KiB time=00:00:02.64 bitrate=   1.8kbits/s speed=0.754x elapsed=0:00:03.50    frame=   80 fps= 20 q=28.0 size=       1KiB time=00:00:03.12 bitrate=   1.5kbits/s speed=0.779x elapsed=0:00:04.00    frame=   93 fps= 21 q=28.0 size=       1KiB time=00:00:03.64 bitrate=   1.3kbits/s speed=0.808x elapsed=0:00:04.50    frame=  106 fps= 21 q=28.0 size=       1KiB time=00:00:04.16 bitrate=   1.1kbits/s speed=0.831x elapsed=0:00:05.00    frame=  118 fps= 21 q=28.0 size=       1KiB time=00:00:04.64 bitrate=   1.0kbits/s speed=0.843x elapsed=0:00:05.50    frame=  131 fps= 22 q=28.0 size=     166KiB time=00:00:05.16 bitrate= 264.3kbits/s speed=0.859x elapsed=0:00:06.00    frame=  143 fps= 22 q=28.0 size=     166KiB time=00:00:05.64 bitrate= 241.8kbits/s speed=0.867x elapsed=0:00:06.50    frame=  156 fps= 22 q=28.0 size=     166KiB time=00:00:06.16 bitrate= 221.4kbits/s speed=0.879x elapsed=0:00:07.01    frame=  168 fps= 22 q=28.0 size=     166KiB time=00:00:06.64 bitrate= 205.4kbits/s speed=0.884x elapsed=0:00:07.51    frame=  181 fps= 23 q=28.0 size=     166KiB time=00:00:07.16 bitrate= 190.5kbits/s speed=0.894x elapsed=0:00:08.01    frame=  194 fps= 23 q=28.0 size=     166KiB time=00:00:07.68 bitrate= 177.6kbits/s speed=0.902x elapsed=0:00:08.51    frame=  206 fps= 23 q=28.0 size=     166KiB time=00:00:08.16 bitrate= 167.1kbits/s speed=0.905x elapsed=0:00:09.01    frame=  219 fps= 23 q=28.0 size=     166KiB time=00:00:08.68 bitrate= 157.1kbits/s speed=0.912x elapsed=0:00:09.51    frame=  231 fps= 23 q=28.0 size=     166KiB time=00:00:09.16 bitrate= 148.9kbits/s speed=0.915x elapsed=0:00:10.01    frame=  243 fps= 23 q=28.0 size=     166KiB time=00:00:09.64 bitrate= 141.5kbits/s speed=0.917x elapsed=0:00:10.51    frame=  256 fps= 23 q=28.0 size=     256KiB time=00:00:10.16 bitrate= 206.4kbits/s speed=0.922x elapsed=0:00:11.01    frame=  269 fps= 23 q=28.0 size=     256KiB time=00:00:10.68 bitrate= 196.4kbits/s speed=0.927x elapsed=0:00:11.51    frame=  281 fps= 23 q=28.0 size=     256KiB time=00:00:11.16 bitrate= 187.9kbits/s speed=0.929x elapsed=0:00:12.01    frame=  293 fps= 23 q=28.0 size=     256KiB time=00:00:11.64 bitrate= 180.2kbits/s speed=0.93x elapsed=0:00:12.51    frame=  306 fps= 24 q=28.0 size=     256KiB time=00:00:12.16 bitrate= 172.5kbits/s speed=0.934x elapsed=0:00:13.01    frame=  319 fps= 24 q=28.0 size=     256KiB time=00:00:12.68 bitrate= 165.4kbits/s speed=0.938x elapsed=0:00:13.52    frame=  331 fps= 24 q=28.0 size=     256KiB time=00:00:13.16 bitrate= 159.4kbits/s speed=0.938x elapsed=0:00:14.03    frame=  344 fps= 24 q=28.0 size=     256KiB time=00:00:13.68 bitrate= 153.3kbits/s speed=0.941x elapsed=0:00:14.53    frame=  357 fps= 24 q=28.0 size=     256KiB time=00:00:14.20 bitrate= 147.7kbits/s speed=0.945x elapsed=0:00:15.03    frame=  369 fps= 24 q=28.0 size=     256KiB time=00:00:14.68 bitrate= 142.9kbits/s speed=0.945x elapsed=0:00:15.53    frame=  382 fps= 24 q=28.0 size=     256KiB time=00:00:15.20 bitrate= 138.0kbits/s speed=0.948x elapsed=0:00:16.03    frame=  394 fps= 24 q=28.0 size=     256KiB time=00:00:15.68 bitrate= 133.7kbits/s speed=0.948x elapsed=0:00:16.53    frame=  406 fps= 24 q=28.0 size=     256KiB time=00:00:16.16 bitrate= 129.8kbits/s speed=0.949x elapsed=0:00:17.03    frame=  419 fps= 24 q=28.0 size=     256KiB time=00:00:16.68 bitrate= 125.7kbits/s speed=0.951x elapsed=0:00:17.53    frame=  431 fps= 24 q=28.0 size=     256KiB time=00:00:17.16 bitrate= 122.2kbits/s speed=0.951x elapsed=0:00:18.03    frame=  444 fps= 24 q=28.0 size=     256KiB time=00:00:17.68 bitrate= 118.6kbits/s speed=0.954x elapsed=0:00:18.53    frame=  457 fps= 24 q=28.0 size=     256KiB time=00:00:18.20 bitrate= 115.2kbits/s speed=0.956x elapsed=0:00:19.03    frame=  469 fps= 24 q=28.0 size=     256KiB time=00:00:18.68 bitrate= 112.3kbits/s speed=0.956x elapsed=0:00:19.54    frame=  482 fps= 24 q=28.0 size=     256KiB time=00:00:19.20 bitrate= 109.2kbits/s speed=0.958x elapsed=0:00:20.04    frame=  494 fps= 24 q=28.0 size=     256KiB time=00:00:19.68 bitrate= 106.6kbits/s speed=0.958x elapsed=0:00:20.54    frame=  507 fps= 24 q=28.0 size=     512KiB time=00:00:20.20 bitrate= 207.6kbits/s speed=0.96x elapsed=0:00:21.04    frame=  519 fps= 24 q=28.0 size=     512KiB time=00:00:20.68 bitrate= 202.8kbits/s speed=0.96x elapsed=0:00:21.54    frame=  532 fps= 24 q=28.0 size=     512KiB time=00:00:21.20 bitrate= 197.8kbits/s speed=0.962x elapsed=0:00:22.04    frame=  544 fps= 24 q=28.0 size=     512KiB time=00:00:21.68 bitrate= 193.5kbits/s speed=0.962x elapsed=0:00:22.54    frame=  557 fps= 24 q=28.0 size=     512KiB time=00:00:22.20 bitrate= 188.9kbits/s speed=0.963x elapsed=0:00:23.04    frame=  569 fps= 24 q=28.0 size=     512KiB time=00:00:22.68 bitrate= 184.9kbits/s speed=0.963x elapsed=0:00:23.55    frame=  582 fps= 24 q=28.0 size=     512KiB time=00:00:23.20 bitrate= 180.8kbits/s speed=0.965x elapsed=0:00:24.05    frame=  594 fps= 24 q=28.0 size=     512KiB time=00:00:23.68 bitrate= 177.1kbits/s speed=0.965x elapsed=0:00:24.55    frame=  607 fps= 24 q=28.0 size=     512KiB time=00:00:24.20 bitrate= 173.3kbits/s speed=0.966x elapsed=0:00:25.05    frame=  619 fps= 24 q=28.0 size=     512KiB time=00:00:24.68 bitrate= 169.9kbits/s speed=0.966x elapsed=0:00:25.55    frame=  632 fps= 24 q=28.0 size=     768KiB time=00:00:25.20 bitrate= 249.7kbits/s speed=0.967x elapsed=0:00:26.05    frame=  645 fps= 24 q=28.0 size=     768KiB time=00:00:25.72 bitrate= 244.6kbits/s speed=0.969x elapsed=0:00:26.55    frame=  657 fps= 24 q=28.0 size=     768KiB time=00:00:26.20 bitrate= 240.1kbits/s speed=0.968x elapsed=0:00:27.05    frame=  666 fps= 24 q=28.0 size=     768KiB time=00:00:26.56 bitrate= 236.9kbits/s speed=0.964x elapsed=0:00:27.55    frame=  682 fps= 24 q=28.0 size=     768KiB time=00:00:27.20 bitrate= 231.3kbits/s speed=0.969x elapsed=0:00:28.05    frame=  695 fps= 24 q=28.0 size=     768KiB time=00:00:27.72 bitrate= 227.0kbits/s speed=0.971x elapsed=0:00:28.55    frame=  707 fps= 24 q=28.0 size=     768KiB time=00:00:28.20 bitrate= 223.1kbits/s speed=0.971x elapsed=0:00:29.05    frame=  720 fps= 24 q=28.0 size=     768KiB time=00:00:28.72 bitrate= 219.1kbits/s speed=0.972x elapsed=0:00:29.55    frame=  732 fps= 24 q=28.0 size=     768KiB time=00:00:29.20 bitrate= 215.5kbits/s speed=0.971x elapsed=0:00:30.05    frame=  744 fps= 24 q=28.0 size=     768KiB time=00:00:29.68 bitrate= 212.0kbits/s speed=0.971x elapsed=0:00:30.55    frame=  757 fps= 24 q=28.0 size=     768KiB time=00:00:30.20 bitrate= 208.3kbits/s speed=0.972x elapsed=0:00:31.05    frame=  769 fps= 24 q=28.0 size=     768KiB time=00:00:30.68 bitrate= 205.1kbits/s speed=0.972x elapsed=0:00:31.55    frame=  782 fps= 24 q=28.0 size=     768KiB time=00:00:31.20 bitrate= 201.6kbits/s speed=0.973x elapsed=0:00:32.05    frame=  794 fps= 24 q=28.0 size=     768KiB time=00:00:31.68 bitrate= 198.6kbits/s speed=0.973x elapsed=0:00:32.55    frame=  807 fps= 24 q=28.0 size=     768KiB time=00:00:32.20 bitrate= 195.4kbits/s speed=0.974x elapsed=0:00:33.05    frame=  820 fps= 24 q=28.0 size=     768KiB time=00:00:32.72 bitrate= 192.3kbits/s speed=0.975x elapsed=0:00:33.55    frame=  832 fps= 24 q=28.0 size=     768KiB time=00:00:33.20 bitrate= 189.5kbits/s speed=0.975x elapsed=0:00:34.06    frame=  845 fps= 24 q=28.0 size=     768KiB time=00:00:33.72 bitrate= 186.6kbits/s speed=0.976x elapsed=0:00:34.56    frame=  857 fps= 24 q=28.0 size=     768KiB time=00:00:34.20 bitrate= 184.0kbits/s speed=0.975x elapsed=0:00:35.06    frame=  870 fps= 24 q=28.0 size=     768KiB time=00:00:34.72 bitrate= 181.2kbits/s speed=0.976x elapsed=0:00:35.56    frame=  882 fps= 24 q=28.0 size=    1024KiB time=00:00:35.20 bitrate= 238.3kbits/s speed=0.976x elapsed=0:00:36.06    frame=  894 fps= 24 q=28.0 size=    1024KiB time=00:00:35.68 bitrate= 235.1kbits/s speed=0.976x elapsed=0:00:36.56    frame=  907 fps= 24 q=28.0 size=    1024KiB time=00:00:36.20 bitrate= 231.7kbits/s speed=0.977x elapsed=0:00:37.06    frame=  920 fps= 24 q=28.0 size=    1024KiB time=00:00:36.72 bitrate= 228.4kbits/s speed=0.977x elapsed=0:00:37.56    frame=  932 fps= 24 q=28.0 size=    1024KiB time=00:00:37.20 bitrate= 225.5kbits/s speed=0.977x elapsed=0:00:38.06    frame=  945 fps= 25 q=28.0 size=    1024KiB time=00:00:37.72 bitrate= 222.4kbits/s speed=0.978x elapsed=0:00:38.56    frame=  957 fps= 24 q=28.0 size=    1024KiB time=00:00:38.20 bitrate= 219.6kbits/s speed=0.978x elapsed=0:00:39.06    frame=  970 fps= 25 q=28.0 size=    1024KiB time=00:00:38.72 bitrate= 216.6kbits/s speed=0.979x elapsed=0:00:39.56    frame=  982 fps= 25 q=28.0 size=    1024KiB time=00:00:39.20 bitrate= 214.0kbits/s speed=0.978x elapsed=0:00:40.07    frame=  995 fps= 25 q=28.0 size=    1024KiB time=00:00:39.72 bitrate= 211.2kbits/s speed=0.979x elapsed=0:00:40.57    frame= 1007 fps= 25 q=28.0 size=    1280KiB time=00:00:40.20 bitrate= 260.8kbits/s speed=0.979x elapsed=0:00:41.07    frame= 1020 fps= 25 q=28.0 size=    1280KiB time=00:00:40.72 bitrate= 257.5kbits/s speed=0.98x elapsed=0:00:41.57    frame= 1032 fps= 25 q=28.0 size=    1280KiB time=00:00:41.20 bitrate= 254.5kbits/s speed=0.979x elapsed=0:00:42.07    frame= 1045 fps= 25 q=28.0 size=    1280KiB time=00:00:41.72 bitrate= 251.3kbits/s speed=0.98x elapsed=0:00:42.57    frame= 1058 fps= 25 q=28.0 size=    1280KiB time=00:00:42.24 bitrate= 248.2kbits/s speed=0.981x elapsed=0:00:43.07    frame= 1070 fps= 25 q=28.0 size=    1280KiB time=00:00:42.72 bitrate= 245.5kbits/s speed=0.98x elapsed=0:00:43.57    frame= 1083 fps= 25 q=28.0 size=    1280KiB time=00:00:43.24 bitrate= 242.5kbits/s speed=0.981x elapsed=0:00:44.07    frame= 1095 fps= 25 q=28.0 size=    1280KiB time=00:00:43.72 bitrate= 239.8kbits/s speed=0.981x elapsed=0:00:44.57    frame= 1107 fps= 25 q=28.0 size=    1280KiB time=00:00:44.20 bitrate= 237.2kbits/s speed=0.981x elapsed=0:00:45.07    frame= 1120 fps= 25 q=28.0 size=    1280KiB time=00:00:44.72 bitrate= 234.5kbits/s speed=0.981x elapsed=0:00:45.57    frame= 1132 fps= 25 q=28.0 size=    1536KiB time=00:00:45.24 bitrate= 278.1kbits/s speed=0.982x elapsed=0:00:46.07    frame= 1145 fps= 25 q=28.0 size=    1536KiB time=00:00:45.72 bitrate= 275.2kbits/s speed=0.981x elapsed=0:00:46.58    frame= 1158 fps= 25 q=28.0 size=    1536KiB time=00:00:46.24 bitrate= 272.1kbits/s speed=0.982x elapsed=0:00:47.08    frame= 1170 fps= 25 q=28.0 size=    1536KiB time=00:00:46.72 bitrate= 269.3kbits/s speed=0.982x elapsed=0:00:47.58    frame= 1183 fps= 25 q=28.0 size=    1536KiB time=00:00:47.24 bitrate= 266.4kbits/s speed=0.982x elapsed=0:00:48.08    frame= 1195 fps= 25 q=28.0 size=    1536KiB time=00:00:47.72 bitrate= 263.7kbits/s speed=0.982x elapsed=0:00:48.58    frame= 1208 fps= 25 q=28.0 size=    1536KiB time=00:00:48.24 bitrate= 260.8kbits/s speed=0.983x elapsed=0:00:49.08    frame= 1220 fps= 25 q=28.0 size=    1536KiB time=00:00:48.72 bitrate= 258.3kbits/s speed=0.983x elapsed=0:00:49.58    frame= 1233 fps= 25 q=28.0 size=    1536KiB time=00:00:49.24 bitrate= 255.5kbits/s speed=0.983x elapsed=0:00:50.08    frame= 1245 fps= 25 q=28.0 size=    1536KiB time=00:00:49.72 bitrate= 253.1kbits/s speed=0.983x elapsed=0:00:50.58    frame= 1258 fps= 25 q=28.0 size=    1536KiB time=00:00:50.24 bitrate= 250.5kbits/s speed=0.983x elapsed=0:00:51.08    frame= 1270 fps= 25 q=28.0 size=    1536KiB time=00:00:50.72 bitrate= 248.1kbits/s speed=0.983x elapsed=0:00:51.58    frame= 1283 fps= 25 q=28.0 size=    1536KiB time=00:00:51.24 bitrate= 245.6kbits/s speed=0.984x elapsed=0:00:52.09    frame= 1295 fps= 25 q=28.0 size=    1536KiB time=00:00:51.72 bitrate= 243.3kbits/s speed=0.983x elapsed=0:00:52.59    frame= 1308 fps= 25 q=28.0 size=    1536KiB time=00:00:52.24 bitrate= 240.9kbits/s speed=0.984x elapsed=0:00:53.09    frame= 1320 fps= 25 q=28.0 size=    1536KiB time=00:00:52.72 bitrate= 238.7kbits/s speed=0.984x elapsed=0:00:53.59    frame= 1333 fps= 25 q=28.0 size=    1536KiB time=00:00:53.24 bitrate= 236.3kbits/s speed=0.984x elapsed=0:00:54.09    frame= 1345 fps= 25 q=28.0 size=    1536KiB time=00:00:53.72 bitrate= 234.2kbits/s speed=0.984x elapsed=0:00:54.59    frame= 1358 fps= 25 q=28.0 size=    1536KiB time=00:00:54.24 bitrate= 232.0kbits/s speed=0.985x elapsed=0:00:55.09    frame= 1370 fps= 25 q=28.0 size=    1536KiB time=00:00:54.72 bitrate= 230.0kbits/s speed=0.984x elapsed=0:00:55.59    frame= 1383 fps= 25 q=28.0 size=    1792KiB time=00:00:55.24 bitrate= 265.8kbits/s speed=0.985x elapsed=0:00:56.09    frame= 1396 fps= 25 q=28.0 size=    1792KiB time=00:00:55.76 bitrate= 263.3kbits/s speed=0.985x elapsed=0:00:56.59    frame= 1408 fps= 25 q=28.0 size=    1792KiB time=00:00:56.24 bitrate= 261.0kbits/s speed=0.985x elapsed=0:00:57.09    frame= 1420 fps= 25 q=28.0 size=    1792KiB time=00:00:56.72 bitrate= 258.8kbits/s speed=0.985x elapsed=0:00:57.59    frame= 1433 fps= 25 q=28.0 size=    1792KiB time=00:00:57.24 bitrate= 256.5kbits/s speed=0.985x elapsed=0:00:58.09    frame= 1446 fps= 25 q=28.0 size=    1792KiB time=00:00:57.76 bitrate= 254.2kbits/s speed=0.986x elapsed=0:00:58.59    frame= 1458 fps= 25 q=28.0 size=    1792KiB time=00:00:58.24 bitrate= 252.1kbits/s speed=0.986x elapsed=0:00:59.09    frame= 1471 fps= 25 q=28.0 size=    1792KiB time=00:00:58.76 bitrate= 249.8kbits/s speed=0.986x elapsed=0:00:59.59    frame= 1483 fps= 25 q=28.0 size=    1792KiB time=00:00:59.24 bitrate= 247.8kbits/s speed=0.986x elapsed=0:01:00.09    frame= 1496 fps= 25 q=25.0 size=    1792KiB time=00:00:59.76 bitrate= 245.7kbits/s speed=0.986x elapsed=0:01:00.59    frame= 1508 fps= 25 q=28.0 size=    1792KiB time=00:01:00.24 bitrate= 243.7kbits/s speed=0.986x elapsed=0:01:01.09    frame= 1520 fps= 25 q=28.0 size=    1792KiB time=00:01:00.76 bitrate= 241.6kbits/s speed=0.986x elapsed=0:01:01.59    frame= 1533 fps= 25 q=28.0 size=    1792KiB time=00:01:01.24 bitrate= 239.7kbits/s speed=0.986x elapsed=0:01:02.09    frame= 1546 fps= 25 q=28.0 size=    1792KiB time=00:01:01.76 bitrate= 237.7kbits/s speed=0.987x elapsed=0:01:02.59    frame= 1558 fps= 25 q=28.0 size=    1792KiB time=00:01:02.24 bitrate= 235.9kbits/s speed=0.986x elapsed=0:01:03.09    frame= 1570 fps= 25 q=28.0 size=    1792KiB time=00:01:02.72 bitrate= 234.1kbits/s speed=0.986x elapsed=0:01:03.59    frame= 1583 fps= 25 q=28.0 size=    1792KiB time=00:01:03.24 bitrate= 232.1kbits/s speed=0.987x elapsed=0:01:04.09    frame= 1595 fps= 25 q=28.0 size=    1792KiB time=00:01:03.72 bitrate= 230.4kbits/s speed=0.986x elapsed=0:01:04.59    frame= 1608 fps= 25 q=28.0 size=    1792KiB time=00:01:04.24 bitrate= 228.5kbits/s speed=0.987x elapsed=0:01:05.09    frame= 1621 fps= 25 q=28.0 size=    1792KiB time=00:01:04.76 bitrate= 226.7kbits/s speed=0.987x elapsed=0:01:05.59    frame= 1633 fps= 25 q=28.0 size=    2048KiB time=00:01:05.24 bitrate= 257.2kbits/s speed=0.987x elapsed=0:01:06.09    frame= 1646 fps= 25 q=28.0 size=    2048KiB time=00:01:05.76 bitrate= 255.1kbits/s speed=0.987x elapsed=0:01:06.60    frame= 1658 fps= 25 q=28.0 size=    2048KiB time=00:01:06.24 bitrate= 253.3kbits/s speed=0.987x elapsed=0:01:07.10    frame= 1670 fps= 25 q=28.0 size=    2048KiB time=00:01:06.72 bitrate= 251.5kbits/s speed=0.987x elapsed=0:01:07.60    frame= 1683 fps= 25 q=28.0 size=    2048KiB time=00:01:07.24 bitrate= 249.5kbits/s speed=0.987x elapsed=0:01:08.10    frame= 1696 fps= 25 q=28.0 size=    2048KiB time=00:01:07.76 bitrate= 247.6kbits/s speed=0.988x elapsed=0:01:08.60    frame= 1708 fps= 25 q=28.0 size=    2048KiB time=00:01:08.24 bitrate= 245.9kbits/s speed=0.987x elapsed=0:01:09.10    frame= 1721 fps= 25 q=28.0 size=    2048KiB time=00:01:08.76 bitrate= 244.0kbits/s speed=0.988x elapsed=0:01:09.60    frame= 1733 fps= 25 q=28.0 size=    2048KiB time=00:01:09.24 bitrate= 242.3kbits/s speed=0.988x elapsed=0:01:10.10    frame= 1746 fps= 25 q=25.0 size=    2048KiB time=00:01:09.76 bitrate= 240.5kbits/s speed=0.988x elapsed=0:01:10.60    frame= 1758 fps= 25 q=28.0 size=    2048KiB time=00:01:10.24 bitrate= 238.9kbits/s speed=0.988x elapsed=0:01:11.10    frame= 1771 fps= 25 q=28.0 size=    2048KiB time=00:01:10.76 bitrate= 237.1kbits/s speed=0.988x elapsed=0:01:11.60    frame= 1783 fps= 25 q=28.0 size=    2048KiB time=00:01:11.24 bitrate= 235.5kbits/s speed=0.988x elapsed=0:01:12.10    frame= 1796 fps= 25 q=28.0 size=    2048KiB time=00:01:11.76 bitrate= 233.8kbits/s speed=0.988x elapsed=0:01:12.60    frame= 1808 fps= 25 q=28.0 size=    2048KiB time=00:01:12.24 bitrate= 232.2kbits/s speed=0.988x elapsed=0:01:13.10    frame= 1821 fps= 25 q=28.0 size=    2048KiB time=00:01:12.76 bitrate= 230.6kbits/s speed=0.988x elapsed=0:01:13.60    frame= 1833 fps= 25 q=28.0 size=    2048KiB time=00:01:13.24 bitrate= 229.1kbits/s speed=0.988x elapsed=0:01:14.11    frame= 1846 fps= 25 q=28.0 size=    2048KiB time=00:01:13.76 bitrate= 227.5kbits/s speed=0.989x elapsed=0:01:14.61    frame= 1858 fps= 25 q=28.0 size=    2048KiB time=00:01:14.24 bitrate= 226.0kbits/s speed=0.988x elapsed=0:01:15.11    frame= 1871 fps= 25 q=28.0 size=    2048KiB time=00:01:14.76 bitrate= 224.4kbits/s speed=0.989x elapsed=0:01:15.61    frame= 1883 fps= 25 q=28.0 size=    2304KiB time=00:01:15.24 bitrate= 250.9kbits/s speed=0.989x elapsed=0:01:16.11    frame= 1896 fps= 25 q=28.0 size=    2304KiB time=00:01:15.76 bitrate= 249.1kbits/s speed=0.989x elapsed=0:01:16.61    frame= 1909 fps= 25 q=28.0 size=    2304KiB time=00:01:16.28 bitrate= 247.4kbits/s speed=0.989x elapsed=0:01:17.11    frame= 1921 fps= 25 q=28.0 size=    2304KiB time=00:01:16.76 bitrate= 245.9kbits/s speed=0.989x elapsed=0:01:17.61    frame= 1934 fps= 25 q=28.0 size=    2304KiB time=00:01:17.28 bitrate= 244.2kbits/s speed=0.989x elapsed=0:01:18.11    frame= 1946 fps= 25 q=28.0 size=    2304KiB time=00:01:17.76 bitrate= 242.7kbits/s speed=0.989x elapsed=0:01:18.61    frame= 1958 fps= 25 q=28.0 size=    2304KiB time=00:01:18.24 bitrate= 241.2kbits/s speed=0.989x elapsed=0:01:19.11    frame= 1970 fps= 25 q=28.0 size=    2304KiB time=00:01:18.72 bitrate= 239.8kbits/s speed=0.989x elapsed=0:01:19.61    frame= 1983 fps= 25 q=28.0 size=    2304KiB time=00:01:19.24 bitrate= 238.2kbits/s speed=0.989x elapsed=0:01:20.11    frame= 1996 fps= 25 q=25.0 size=    2304KiB time=00:01:19.76 bitrate= 236.6kbits/s speed=0.989x elapsed=0:01:20.61    frame= 2009 fps= 25 q=28.0 size=    2304KiB time=00:01:20.28 bitrate= 235.1kbits/s speed=0.99x elapsed=0:01:21.11    frame= 2021 fps= 25 q=28.0 size=    2304KiB time=00:01:20.76 bitrate= 233.7kbits/s speed=0.989x elapsed=0:01:21.61    frame= 2034 fps= 25 q=28.0 size=    2304KiB time=00:01:21.28 bitrate= 232.2kbits/s speed=0.99x elapsed=0:01:22.11    frame= 2046 fps= 25 q=28.0 size=    2304KiB time=00:01:21.76 bitrate= 230.9kbits/s speed=0.99x elapsed=0:01:22.61    frame= 2059 fps= 25 q=28.0 size=    2304KiB time=00:01:22.28 bitrate= 229.4kbits/s speed=0.99x elapsed=0:01:23.11    frame= 2071 fps= 25 q=28.0 size=    2304KiB time=00:01:22.76 bitrate= 228.1kbits/s speed=0.99x elapsed=0:01:23.61    frame= 2084 fps= 25 q=28.0 size=    2304KiB time=00:01:23.28 bitrate= 226.6kbits/s speed=0.99x elapsed=0:01:24.11    frame= 2096 fps= 25 q=28.0 size=    2304KiB time=00:01:23.76 bitrate= 225.3kbits/s speed=0.99x elapsed=0:01:24.62    frame= 2109 fps= 25 q=28.0 size=    2304KiB time=00:01:24.28 bitrate= 223.9kbits/s speed=0.99x elapsed=0:01:25.12    frame= 2121 fps= 25 q=28.0 size=    2304KiB time=00:01:24.76 bitrate= 222.7kbits/s speed=0.99x elapsed=0:01:25.63    frame= 2134 fps= 25 q=28.0 size=    2560KiB time=00:01:25.28 bitrate= 245.9kbits/s speed=0.99x elapsed=0:01:26.13    frame= 2146 fps= 25 q=28.0 size=    2560KiB time=00:01:25.76 bitrate= 244.5kbits/s speed=0.99x elapsed=0:01:26.63    frame= 2159 fps= 25 q=28.0 size=    2560KiB time=00:01:26.28 bitrate= 243.1kbits/s speed=0.99x elapsed=0:01:27.13    frame= 2172 fps= 25 q=28.0 size=    2560KiB time=00:01:26.80 bitrate= 241.6kbits/s speed=0.99x elapsed=0:01:27.63    frame= 2184 fps= 25 q=28.0 size=    2560KiB time=00:01:27.28 bitrate= 240.3kbits/s speed=0.99x elapsed=0:01:28.13    frame= 2196 fps= 25 q=28.0 size=    2560KiB time=00:01:27.76 bitrate= 239.0kbits/s speed=0.99x elapsed=0:01:28.63    frame= 2209 fps= 25 q=28.0 size=    2560KiB time=00:01:28.28 bitrate= 237.6kbits/s speed=0.99x elapsed=0:01:29.13    frame= 2222 fps= 25 q=28.0 size=    2560KiB time=00:01:28.80 bitrate= 236.2kbits/s speed=0.991x elapsed=0:01:29.63    frame= 2234 fps= 25 q=28.0 size=    2560KiB time=00:01:29.28 bitrate= 234.9kbits/s speed=0.991x elapsed=0:01:30.13    frame= 2247 fps= 25 q=28.0 size=    2560KiB time=00:01:29.80 bitrate= 233.5kbits/s speed=0.991x elapsed=0:01:30.63    frame= 2259 fps= 25 q=28.0 size=    2816KiB time=00:01:30.28 bitrate= 255.5kbits/s speed=0.991x elapsed=0:01:31.13    frame= 2272 fps= 25 q=28.0 size=    2816KiB time=00:01:30.80 bitrate= 254.1kbits/s speed=0.991x elapsed=0:01:31.63    frame= 2284 fps= 25 q=28.0 size=    2816KiB time=00:01:31.28 bitrate= 252.7kbits/s speed=0.991x elapsed=0:01:32.13    frame= 2297 fps= 25 q=28.0 size=    2816KiB time=00:01:31.80 bitrate= 251.3kbits/s speed=0.991x elapsed=0:01:32.63    frame= 2309 fps= 25 q=28.0 size=    2816KiB time=00:01:32.28 bitrate= 250.0kbits/s speed=0.991x elapsed=0:01:33.14    frame= 2322 fps= 25 q=28.0 size=    2816KiB time=00:01:32.80 bitrate= 248.6kbits/s speed=0.991x elapsed=0:01:33.64    frame= 2334 fps= 25 q=28.0 size=    2816KiB time=00:01:33.28 bitrate= 247.3kbits/s speed=0.991x elapsed=0:01:34.14    frame= 2346 fps= 25 q=28.0 size=    2816KiB time=00:01:33.76 bitrate= 246.0kbits/s speed=0.991x elapsed=0:01:34.64    frame= 2359 fps= 25 q=28.0 size=    2816KiB time=00:01:34.28 bitrate= 244.7kbits/s speed=0.991x elapsed=0:01:35.14    frame= 2372 fps= 25 q=28.0 size=    2816KiB time=00:01:34.80 bitrate= 243.3kbits/s speed=0.991x elapsed=0:01:35.64    frame= 2384 fps= 25 q=28.0 size=    2816KiB time=00:01:35.28 bitrate= 242.1kbits/s speed=0.991x elapsed=0:01:36.14    frame= 2396 fps= 25 q=28.0 size=    2816KiB time=00:01:35.76 bitrate= 240.9kbits/s speed=0.991x elapsed=0:01:36.64    frame= 2409 fps= 25 q=28.0 size=    2816KiB time=00:01:36.28 bitrate= 239.6kbits/s speed=0.991x elapsed=0:01:37.14    frame= 2422 fps= 25 q=28.0 size=    2816KiB time=00:01:36.80 bitrate= 238.3kbits/s speed=0.991x elapsed=0:01:37.64    frame= 2434 fps= 25 q=28.0 size=    2816KiB time=00:01:37.28 bitrate= 237.1kbits/s speed=0.991x elapsed=0:01:38.14    frame= 2447 fps= 25 q=28.0 size=    2816KiB time=00:01:37.80 bitrate= 235.9kbits/s speed=0.991x elapsed=0:01:38.64    frame= 2459 fps= 25 q=28.0 size=    2816KiB time=00:01:38.28 bitrate= 234.7kbits/s speed=0.991x elapsed=0:01:39.14    frame= 2472 fps= 25 q=28.0 size=    2816KiB time=00:01:38.80 bitrate= 233.5kbits/s speed=0.991x elapsed=0:01:39.65    frame= 2484 fps= 25 q=28.0 size=    2816KiB time=00:01:39.28 bitrate= 232.4kbits/s speed=0.991x elapsed=0:01:40.15    frame= 2496 fps= 25 q=25.0 size=    2816KiB time=00:01:39.76 bitrate= 231.2kbits/s speed=0.991x elapsed=0:01:40.65    frame= 2509 fps= 25 q=28.0 size=    3072KiB time=00:01:40.28 bitrate= 251.0kbits/s speed=0.991x elapsed=0:01:41.15    frame= 2522 fps= 25 q=28.0 size=    3072KiB time=00:01:40.80 bitrate= 249.7kbits/s speed=0.992x elapsed=0:01:41.65    frame= 2534 fps= 25 q=28.0 size=    3072KiB time=00:01:41.28 bitrate= 248.5kbits/s speed=0.991x elapsed=0:01:42.15    frame= 2547 fps= 25 q=28.0 size=    3072KiB time=00:01:41.80 bitrate= 247.2kbits/s speed=0.992x elapsed=0:01:42.65    frame= 2560 fps= 25 q=28.0 size=    3072KiB time=00:01:42.32 bitrate= 246.0kbits/s speed=0.992x elapsed=0:01:43.15    frame= 2572 fps= 25 q=28.0 size=    3072KiB time=00:01:42.80 bitrate= 244.8kbits/s speed=0.992x elapsed=0:01:43.65    frame= 2584 fps= 25 q=28.0 size=    3072KiB time=00:01:43.32 bitrate= 243.6kbits/s speed=0.992x elapsed=0:01:44.15    frame= 2597 fps= 25 q=28.0 size=    3072KiB time=00:01:43.80 bitrate= 242.4kbits/s speed=0.992x elapsed=0:01:44.65    frame= 2609 fps= 25 q=28.0 size=    3072KiB time=00:01:44.28 bitrate= 241.3kbits/s speed=0.992x elapsed=0:01:45.15    frame= 2622 fps= 25 q=28.0 size=    3072KiB time=00:01:44.80 bitrate= 240.1kbits/s speed=0.992x elapsed=0:01:45.65    frame= 2635 fps= 25 q=28.0 size=    3328KiB time=00:01:45.32 bitrate= 258.9kbits/s speed=0.992x elapsed=0:01:46.15    frame= 2647 fps= 25 q=28.0 size=    3328KiB time=00:01:45.80 bitrate= 257.7kbits/s speed=0.992x elapsed=0:01:46.66    frame= 2660 fps= 25 q=28.0 size=    3328KiB time=00:01:46.32 bitrate= 256.4kbits/s speed=0.992x elapsed=0:01:47.16    frame= 2672 fps= 25 q=28.0 size=    3328KiB time=00:01:46.80 bitrate= 255.3kbits/s speed=0.992x elapsed=0:01:47.66    frame= 2685 fps= 25 q=28.0 size=    3328KiB time=00:01:47.32 bitrate= 254.0kbits/s speed=0.992x elapsed=0:01:48.16    frame= 2697 fps= 25 q=28.0 size=    3328KiB time=00:01:47.80 bitrate= 252.9kbits/s speed=0.992x elapsed=0:01:48.66    frame= 2710 fps= 25 q=28.0 size=    3328KiB time=00:01:48.32 bitrate= 251.7kbits/s speed=0.992x elapsed=0:01:49.16    frame= 2722 fps= 25 q=28.0 size=    3328KiB time=00:01:48.80 bitrate= 250.6kbits/s speed=0.992x elapsed=0:01:49.66    frame= 2735 fps= 25 q=28.0 size=    3328KiB time=00:01:49.32 bitrate= 249.4kbits/s speed=0.992x elapsed=0:01:50.16    frame= 2747 fps= 25 q=28.0 size=    3328KiB time=00:01:49.80 bitrate= 248.3kbits/s speed=0.992x elapsed=0:01:50.66    frame= 2760 fps= 25 q=28.0 size=    3328KiB time=00:01:50.32 bitrate= 247.1kbits/s speed=0.992x elapsed=0:01:51.16    frame= 2772 fps= 25 q=28.0 size=    3328KiB time=00:01:50.80 bitrate= 246.1kbits/s speed=0.992x elapsed=0:01:51.66    frame= 2784 fps= 25 q=28.0 size=    3328KiB time=00:01:51.28 bitrate= 245.0kbits/s speed=0.992x elapsed=0:01:52.16    frame= 2797 fps= 25 q=28.0 size=    3328KiB time=00:01:51.80 bitrate= 243.9kbits/s speed=0.992x elapsed=0:01:52.66    frame= 2810 fps= 25 q=28.0 size=    3328KiB time=00:01:52.32 bitrate= 242.7kbits/s speed=0.993x elapsed=0:01:53.16    frame= 2822 fps= 25 q=28.0 size=    3328KiB time=00:01:52.80 bitrate= 241.7kbits/s speed=0.992x elapsed=0:01:53.66    frame= 2835 fps= 25 q=28.0 size=    3328KiB time=00:01:53.32 bitrate= 240.6kbits/s speed=0.993x elapsed=0:01:54.16    frame= 2847 fps= 25 q=28.0 size=    3328KiB time=00:01:53.80 bitrate= 239.6kbits/s speed=0.992x elapsed=0:01:54.66    frame= 2860 fps= 25 q=28.0 size=    3328KiB time=00:01:54.32 bitrate= 238.5kbits/s speed=0.993x elapsed=0:01:55.16    frame= 2872 fps= 25 q=28.0 size=    3328KiB time=00:01:54.80 bitrate= 237.5kbits/s speed=0.992x elapsed=0:01:55.66    frame= 2885 fps= 25 q=28.0 size=    3584KiB time=00:01:55.32 bitrate= 254.6kbits/s speed=0.993x elapsed=0:01:56.16    frame= 2897 fps= 25 q=28.0 size=    3584KiB time=00:01:55.80 bitrate= 253.5kbits/s speed=0.993x elapsed=0:01:56.67    frame= 2910 fps= 25 q=28.0 size=    3584KiB time=00:01:56.32 bitrate= 252.4kbits/s speed=0.993x elapsed=0:01:57.17    frame= 2922 fps= 25 q=28.0 size=    3584KiB time=00:01:56.80 bitrate= 251.4kbits/s speed=0.993x elapsed=0:01:57.67    frame= 2935 fps= 25 q=28.0 size=    3584KiB time=00:01:57.32 bitrate= 250.3kbits/s speed=0.993x elapsed=0:01:58.17    frame= 2947 fps= 25 q=28.0 size=    3584KiB time=00:01:57.80 bitrate= 249.2kbits/s speed=0.993x elapsed=0:01:58.67    frame= 2960 fps= 25 q=28.0 size=    3584KiB time=00:01:58.32 bitrate= 248.1kbits/s speed=0.993x elapsed=0:01:59.17    frame= 2972 fps= 25 q=28.0 size=    3584KiB time=00:01:58.80 bitrate= 247.1kbits/s speed=0.993x elapsed=0:01:59.67    frame= 2985 fps= 25 q=28.0 size=    3584KiB time=00:01:59.32 bitrate= 246.1kbits/s speed=0.993x elapsed=0:02:00.17    frame= 2997 fps= 25 q=28.0 size=    3584KiB time=00:01:59.80 bitrate= 245.1kbits/s speed=0.993x elapsed=0:02:00.67    frame= 3010 fps= 25 q=28.0 size=    3584KiB time=00:02:00.32 bitrate= 244.0kbits/s speed=0.993x elapsed=0:02:01.17    frame= 3023 fps= 25 q=28.0 size=    3584KiB time=00:02:00.84 bitrate= 243.0kbits/s speed=0.993x elapsed=0:02:01.67    frame= 3035 fps= 25 q=28.0 size=    3584KiB time=00:02:01.32 bitrate= 242.0kbits/s speed=0.993x elapsed=0:02:02.17    frame= 3048 fps= 25 q=28.0 size=    3584KiB time=00:02:01.84 bitrate= 241.0kbits/s speed=0.993x elapsed=0:02:02.67    frame= 3060 fps= 25 q=28.0 size=    3584KiB time=00:02:02.32 bitrate= 240.0kbits/s speed=0.993x elapsed=0:02:03.17    [out#0/matroska @ 0x561ae247e500] video:3865KiB audio:0KiB subtitle:0KiB other streams:0KiB global headers:0KiB muxing overhead: 0.580117%
frame= 3093 fps= 25 q=-1.0 Lsize=    3887KiB time=00:02:03.64 bitrate= 257.5kbits/s speed=0.998x elapsed=0:02:03.84    
[libx264 @ 0x561ae247ff00] frame I:13    Avg QP:11.64  size:118057
[libx264 @ 0x561ae247ff00] frame P:779   Avg QP:17.32  size:  1692
[libx264 @ 0x561ae247ff00] frame B:2301  Avg QP:24.44  size:   480
[libx264 @ 0x561ae247ff00] consecutive B-frames:  0.8%  0.0%  0.0% 99.2%
[libx264 @ 0x561ae247ff00] mb I  I16..4: 89.0%  1.8%  9.2%
[libx264 @ 0x561ae247ff00] mb P  I16..4:  0.3%  0.1%  0.0%  P16..4:  0.3%  0.2%  0.1%  0.0%  0.0%    skip:99.1%
[libx264 @ 0x561ae247ff00] mb B  I16..4:  0.0%  0.0%  0.0%  B16..8:  0.2%  0.1%  0.0%  direct: 0.0%  skip:99.6%  L0:45.1% L1:47.4% BI: 7.5%
[libx264 @ 0x561ae247ff00] 8x8 transform intra:4.1% inter:2.4%
[libx264 @ 0x561ae247ff00] coded y,uvDC,uvAC intra: 14.2% 20.5% 16.8% inter: 0.1% 0.1% 0.0%
[libx264 @ 0x561ae247ff00] i16 v,h,dc,p: 69% 29%  2%  0%
[libx264 @ 0x561ae247ff00] i8 v,h,dc,ddl,ddr,vr,hd,vl,hu: 13% 18% 64%  1%  1%  3%  0%  0%  1%
[libx264 @ 0x561ae247ff00] i4 v,h,dc,ddl,ddr,vr,hd,vl,hu: 32% 28% 21%  3%  2%  6%  2%  4%  2%
[libx264 @ 0x561ae247ff00] i8c dc,h,v,p: 62% 29%  9%  0%
[libx264 @ 0x561ae247ff00] Weighted P-Frames: Y:0.0% UV:0.0%
[libx264 @ 0x561ae247ff00] kb/s:255.84
Exiting normally, received signal 2.
